<?xml version="1.0" encoding="iso-8859-1"?>
<!-- Generator: Adobe Illustrator 17.0.0, SVG Export Plug-In . SVG Version: 6.00 Build 0)  -->
<!DOCTYPE svg PUBLIC "-//W3C//DTD SVG 1.1//EN" "http://www.w3.org/Graphics/SVG/1.1/DTD/svg11.dtd">
<svg version="1.1" id="&#x56FE;&#x5C42;_1" xmlns="http://www.w3.org/2000/svg" xmlns:xlink="http://www.w3.org/1999/xlink" x="0px"
	 y="0px" width="56px" height="56px" viewBox="0 0 56 56" style="enable-background:new 0 0 56 56;" xml:space="preserve">
<path style="fill-rule:evenodd;clip-rule:evenodd;fill:#F09696;" d="M28,56C12.536,56,0,43.464,0,28C0,12.536,12.536,0,28,0
	s28,12.536,28,28C56,43.464,43.464,56,28,56z M38.103,45c1.158,0,2.097-0.975,2.097-2.179c0-1.204-0.939-2.18-2.097-2.18
	s-2.097,0.976-2.097,2.18C36.006,44.024,36.945,45,38.103,45z M21.328,45c1.158,0,2.097-0.975,2.097-2.179
	c0-1.204-0.939-2.18-2.097-2.18c-1.158,0-2.097,0.976-2.097,2.18C19.232,44.024,20.17,45,21.328,45z M18,22l-2.405-9H9.874v0.025
	c0,0,0,0,0,0c-0.244,0.032-0.458,0.141-0.614,0.316c-0.022,0.023-0.033,0.053-0.053,0.078c-0.05,0.068-0.102,0.133-0.134,0.213
	C9.028,13.745,9,13.868,9,13.999C9,13.999,9,14,9,14c0,0.001,0,0.001,0,0.002c0,0.131,0.027,0.253,0.074,0.366
	c0.032,0.08,0.084,0.146,0.134,0.214c0.019,0.025,0.031,0.055,0.052,0.078c0.156,0.175,0.37,0.284,0.614,0.316V15h0.125
	c0,0,0,0,0.001,0c0,0,0,0,0,0l0,0h4.153l6,24h19.502l3.47-16.88L18,22z M21.595,37L19,24l21.624-0.12L38.093,37H21.595z"/>
</svg>
