<?xml version="1.0" encoding="iso-8859-1"?>
<!-- Generator: Adobe Illustrator 17.0.0, SVG Export Plug-In . SVG Version: 6.00 Build 0)  -->
<!DOCTYPE svg PUBLIC "-//W3C//DTD SVG 1.1//EN" "http://www.w3.org/Graphics/SVG/1.1/DTD/svg11.dtd">
<svg version="1.1" id="&#x56FE;&#x5C42;_1" xmlns="http://www.w3.org/2000/svg" xmlns:xlink="http://www.w3.org/1999/xlink" x="0px"
	 y="0px" width="43.251px" height="41px" viewBox="0 0 43.251 41" style="enable-background:new 0 0 43.251 41;"
	 xml:space="preserve">
<path style="fill-rule:evenodd;clip-rule:evenodd;fill:#ffffff;" d="M38.781,32H16.279L9.9,10.995l0.01-0.101L6.279,2H0V0h7.721
	l3.713,9.138l31.817,2.982L38.781,32z M17.721,30h19.498l3.53-16.12l-28.623-2.662L17.721,30z M17.625,36c1.381,0,2.5,1.119,2.5,2.5
	c0,1.381-1.119,2.5-2.5,2.5c-1.381,0-2.5-1.119-2.5-2.5C15.125,37.119,16.245,36,17.625,36z M35.625,36c1.381,0,2.5,1.119,2.5,2.5
	c0,1.381-1.119,2.5-2.5,2.5s-2.5-1.119-2.5-2.5C33.125,37.119,34.245,36,35.625,36z"/>
</svg>
