<?xml version="1.0" encoding="iso-8859-1"?>
<!-- Generator: Adobe Illustrator 17.0.0, SVG Export Plug-In . SVG Version: 6.00 Build 0)  -->
<!DOCTYPE svg PUBLIC "-//W3C//DTD SVG 1.1//EN" "http://www.w3.org/Graphics/SVG/1.1/DTD/svg11.dtd">
<svg version="1.1" id="&#x56FE;&#x5C42;_1" xmlns="http://www.w3.org/2000/svg" xmlns:xlink="http://www.w3.org/1999/xlink" x="0px"
	 y="0px" width="40px" height="40.974px" viewBox="0 0 40 40.974" style="enable-background:new 0 0 40 40.974;"
	 xml:space="preserve">
<path style="fill-rule:evenodd;clip-rule:evenodd;fill:#ff0000;" d="M20,40.974c-11.046,0-20-8.948-20-19.987
	c0-0.675,0.036-1.341,0.101-1.999h39.798C39.964,19.646,40,20.312,40,20.987C40,32.026,31.046,40.974,20,40.974z M2,20.987
	c0,9.919,8.075,17.988,18,17.988s18-8.07,18-17.988H2z M37.951,6.994L20,7.993l0,0.002c0,0.552-0.448,0.999-1,0.999
	c-0.551,0-1,0.449-1,0.999c0,0.551,0.449,1,1,1c1.654,0,3,1.345,3,2.998c0,1.653-1.346,2.998-3,2.998c-0.552,0-1-0.448-1-1
	c0-0.552,0.448-0.999,1-0.999c0.551,0,1-0.449,1-0.999c0-0.551-0.449-1-1-1c-1.654,0-3-1.345-3-2.998
	c0-0.684,0.239-1.307,0.626-1.812l-3.708,0.206C12.766,8.744,12.412,8.994,12,8.994c-0.551,0-1,0.449-1,0.999c0,0.551,0.449,1,1,1
	c1.654,0,3,1.345,3,2.998c0,1.653-1.346,2.998-3,2.998c-0.552,0-1-0.448-1-1c0-0.552,0.448-0.999,1-0.999c0.551,0,1-0.449,1-0.999
	c0-0.551-0.449-1-1-1c-1.654,0-3-1.345-3-2.998c0-0.511,0.141-0.986,0.368-1.408L5.565,8.797C5.402,8.912,5.214,8.994,5,8.994
	c-0.551,0-1,0.449-1,0.999c0,0.551,0.449,1,1,1c1.654,0,3,1.345,3,2.998c0,1.653-1.346,2.998-3,2.998c-0.552,0-1-0.448-1-1
	c0-0.552,0.448-0.999,1-0.999c0.551,0,1-0.449,1-0.999c0-0.551-0.449-1-1-1c-1.654,0-3-1.345-3-2.998
	c0-0.355,0.073-0.691,0.187-1.008L2.056,8.993C2.037,8.994,2.018,8.994,1.999,8.994c-0.527,0-0.968-0.411-0.997-0.944
	C0.971,7.5,1.393,7.028,1.944,6.997l35.895-1.999c0.565-0.02,1.023,0.391,1.054,0.942C38.924,6.491,38.502,6.963,37.951,6.994z
	 M37.951,1.997L2.056,3.996C2.037,3.997,2.018,3.997,1.999,3.997c-0.527,0-0.968-0.411-0.997-0.944C0.971,2.503,1.393,2.031,1.944,2
	l35.895-1.999c0.565-0.029,1.023,0.391,1.054,0.942C38.924,1.494,38.502,1.967,37.951,1.997z"/>
</svg>
