<?xml version="1.0" encoding="iso-8859-1"?>
<!-- Generator: Adobe Illustrator 17.0.0, SVG Export Plug-In . SVG Version: 6.00 Build 0)  -->
<!DOCTYPE svg PUBLIC "-//W3C//DTD SVG 1.1//EN" "http://www.w3.org/Graphics/SVG/1.1/DTD/svg11.dtd">
<svg version="1.1" id="&#x56FE;&#x5C42;_1" xmlns="http://www.w3.org/2000/svg" xmlns:xlink="http://www.w3.org/1999/xlink" x="0px"
	 y="0px" width="39.605px" height="40px" viewBox="0 0 39.605 40" style="enable-background:new 0 0 39.605 40;"
	 xml:space="preserve">
<path style="fill:#ff0000;" d="M38.72,25.363c-0.352-0.539-0.703-0.733-1.074-0.733c-0.94,0-2.014,1.24-3.589,1.24
	c-0.179,0-0.367-0.022-0.56-0.058c0.745-1.788,1.158-3.751,1.158-5.812c0-8.284-6.649-15-14.852-15c-2.042,0-3.986,0.417-5.757,1.17
	l0,0c-0.471-2.584,2.487-3.916,0.447-5.277C13.534,0.254,12.519,0,11.513,0C7.601,0,3.801,3.839,3.801,3.839
	s-6.008,6.068-2.916,10.798c0.352,0.539,0.703,0.733,1.074,0.733c0.94,0,2.013-1.24,3.589-1.24c0.179,0,0.367,0.022,0.56,0.058
	C5.363,15.975,4.951,17.939,4.951,20c0,8.284,6.649,15,14.852,15c2.042,0,3.986-0.417,5.757-1.17h0
	c0.471,2.584-2.487,3.916-0.447,5.277C26.071,39.746,27.085,40,28.092,40c3.912,0,7.712-3.838,7.712-3.838
	S41.812,30.093,38.72,25.363z M5.548,12.13c-1.386,0-2.471,0.587-3.189,0.976c-0.015,0.008-0.031,0.017-0.047,0.026
	C0.788,9.887,5.157,5.297,5.198,5.256C6.102,4.35,8.999,2,11.513,2c0.542,0,1.033,0.109,1.489,0.332
	c-0.009,0.017-0.018,0.034-0.026,0.05c-0.505,0.952-1.374,2.603-0.738,4.726c-2.141,1.284-3.931,3.092-5.202,5.254
	C6.545,12.214,6.05,12.13,5.548,12.13z M19.802,33c-7.097,0-12.872-5.832-12.872-13c0-7.168,5.774-13,12.872-13
	c3.494,0,6.664,1.418,8.986,3.71c-2.519,5.217-6.477,9.512-11.462,12.425c-0.473,0.276-0.635,0.888-0.361,1.366
	C17.149,24.821,17.481,25,17.823,25c0.168,0,0.339-0.043,0.495-0.135c5.084-2.97,9.154-7.296,11.857-12.53
	c1.563,2.152,2.499,4.797,2.499,7.665C32.674,27.168,26.9,33,19.802,33z M34.407,34.744C33.503,35.65,30.606,38,28.092,38
	c-0.542,0-1.033-0.109-1.489-0.333c0.009-0.017,0.018-0.033,0.026-0.05c0.505-0.952,1.374-2.603,0.738-4.725
	c2.141-1.284,3.931-3.092,5.202-5.255c0.492,0.149,0.987,0.233,1.488,0.233c1.386,0,2.471-0.587,3.189-0.976
	c0.015-0.008,0.031-0.017,0.047-0.026C38.817,30.113,34.448,34.702,34.407,34.744z"/>
</svg>
