<?xml version="1.0" encoding="iso-8859-1"?>
<!-- Generator: Adobe Illustrator 17.0.0, SVG Export Plug-In . SVG Version: 6.00 Build 0)  -->
<!DOCTYPE svg PUBLIC "-//W3C//DTD SVG 1.1//EN" "http://www.w3.org/Graphics/SVG/1.1/DTD/svg11.dtd">
<svg version="1.1" id="&#x56FE;&#x5C42;_1" xmlns="http://www.w3.org/2000/svg" xmlns:xlink="http://www.w3.org/1999/xlink" x="0px"
	 y="0px" width="40.018px" height="40.99px" viewBox="0 0 40.018 40.99" style="enable-background:new 0 0 40.018 40.99;"
	 xml:space="preserve">
<path style="fill-rule:evenodd;clip-rule:evenodd;fill:#959595;" d="M35.38,9.691c6.177,7.873,6.238,16.665-0.142,23.078
	c-0.198,0.199-0.458,0.298-0.718,0.298c-0.257,0-0.514-0.097-0.711-0.291c-0.397-0.39-0.4-1.026-0.008-1.421
	c6.256-6.289,5.392-15.285-2.201-22.918C27.477,4.292,22.77,2.01,18.347,2.01c-3.529,0-6.73,1.418-9.514,4.216
	C8.44,6.62,7.8,6.623,7.404,6.233c-0.397-0.39-0.4-1.026-0.008-1.421C10.528,1.664,14.315,0,18.347,0
	c4.968,0,10.185,2.494,14.691,7.024c0.368,0.369,0.702,0.746,1.041,1.121c3.291-2.3,3.553-3.619,3.49-4.109
	c-0.098-0.763-1.186-1.257-1.472-1.347c-0.532-0.169-0.826-0.734-0.657-1.262c0.17-0.529,0.74-0.818,1.27-0.653
	c0.959,0.304,2.642,1.279,2.864,3.008C39.805,5.588,38.427,7.53,35.38,9.691z M15.525,5.183l-0.001,2.01
	c-3.025,0-5.78,1.228-8.19,3.651c-5.832,5.863-7.623,18.386-1.398,24.644c2.872,2.887,6.556,3.493,9.14,3.493
	c5.1,0,10.552-2.296,14.228-5.991c6.595-6.63,3.255-14.712-2.07-20.065c-3.677-3.697-7.835-5.732-11.708-5.732V5.183
	c4.552,0,9.209,2.371,13.145,6.328c6.86,6.896,8.931,15.996,2.07,22.892c-4.032,4.053-10.02,6.587-15.664,6.587
	c-3.96,0-7.748-1.246-10.577-4.089c-6.86-6.896-5.462-20.575,1.398-27.471c2.923-2.939,6.246-4.247,9.627-4.247H15.525z
	 M28.401,22.451c0.25-0.495,0.859-0.696,1.356-0.447c0.499,0.248,0.701,0.851,0.451,1.347c-0.215,0.427-5.386,10.487-16.806,13.584
	c-0.089,0.025-0.179,0.036-0.267,0.036c-0.444,0-0.852-0.294-0.974-0.741c-0.147-0.535,0.171-1.088,0.709-1.234
	C23.398,32.141,28.352,22.548,28.401,22.451z"/>
</svg>
