<?xml version="1.0" encoding="iso-8859-1"?>
<!-- Generator: Adobe Illustrator 17.0.0, SVG Export Plug-In . SVG Version: 6.00 Build 0)  -->
<!DOCTYPE svg PUBLIC "-//W3C//DTD SVG 1.1//EN" "http://www.w3.org/Graphics/SVG/1.1/DTD/svg11.dtd">
<svg version="1.1" id="&#x56FE;&#x5C42;_1" xmlns="http://www.w3.org/2000/svg" xmlns:xlink="http://www.w3.org/1999/xlink" x="0px"
	 y="0px" width="40px" height="40px" viewBox="0 0 40 40" style="enable-background:new 0 0 40 40;" xml:space="preserve">
<path style="fill:#ff0000;" d="M23.994,12.401c0.002,0,0.004,0,0.006,0.001V2c0-1.105-0.895-2-2-2h-4c-1.105,0-2,0.895-2,2v3H7
	C6.448,5,6,5.448,6,6c0,0.552,0.448,1,1,1h9v5.402c0.002-0.001,0.004-0.001,0.006-0.001C6.875,14.252,0,22.322,0,32
	c0,2.846,0.604,5.549,1.675,8h36.649C39.396,37.549,40,34.846,40,32C40,22.322,33.125,14.252,23.994,12.401z M18,2h4v10.101
	C21.342,12.036,20.675,12,20,12c-0.675,0-1.342,0.036-2,0.101V2z M3.899,24H12v6H2.118C2.355,27.863,2.978,25.846,3.899,24z
	 M36.967,38H3.033C2.347,36.071,2,34.058,2,32h10c1.105,0,2-0.896,2-2v-6c0-1.104-0.895-2-2-2H5.044c3.233-4.82,8.729-8,14.956-8
	c9.925,0,18,8.075,18,18C38,34.058,37.653,36.071,36.967,38z"/>
</svg>
