<?xml version="1.0" encoding="iso-8859-1"?>
<!-- Generator: Adobe Illustrator 17.0.0, SVG Export Plug-In . SVG Version: 6.00 Build 0)  -->
<!DOCTYPE svg PUBLIC "-//W3C//DTD SVG 1.1//EN" "http://www.w3.org/Graphics/SVG/1.1/DTD/svg11.dtd">
<svg version="1.1" id="&#x56FE;&#x5C42;_1" xmlns="http://www.w3.org/2000/svg" xmlns:xlink="http://www.w3.org/1999/xlink" x="0px"
	 y="0px" width="40px" height="40px" viewBox="0 0 40 40" style="enable-background:new 0 0 40 40;" xml:space="preserve">
<path style="fill-rule:evenodd;clip-rule:evenodd;fill:#959595;" d="M15,40c-0.812,0-3.456,0-4,0C4.925,40,0,35.075,0,29
	c0-6.075,4.925-11,11-11c0,0,0,0,0,0c3.157-1.317,5.678-3.845,6.995-7H18c0-6.075,4.925-11,11-11c6.075,0,11,4.925,11,11
	c0,0.544,0,3.188,0,4C40,28.807,28.807,40,15,40z M38,11c0-4.963-4.037-9-9-9s-9,4.037-9,9c0,0.322-0.076,0.627-0.212,0.896
	c-1.528,3.566-4.444,6.458-8.017,7.949C11.527,19.948,11.265,20,11.001,20c-2.404,0-4.665,0.936-6.365,2.636
	C2.936,24.336,2,26.596,2,29c0,4.962,4.037,9,9,9h4c12.682,0,23-10.318,23-23V11z M13,24c-0.552,0-1-0.448-1-1c0-0.552,0.448-1,1-1
	c4.962,0,9-4.038,9-9c0-0.552,0.448-1,1-1s1,0.448,1,1C24,19.065,19.065,24,13,24z"/>
</svg>
