<?xml version="1.0" encoding="iso-8859-1"?>
<!-- Generator: Adobe Illustrator 17.0.0, SVG Export Plug-In . SVG Version: 6.00 Build 0)  -->
<!DOCTYPE svg PUBLIC "-//W3C//DTD SVG 1.1//EN" "http://www.w3.org/Graphics/SVG/1.1/DTD/svg11.dtd">
<svg version="1.1" id="&#x56FE;&#x5C42;_1" xmlns="http://www.w3.org/2000/svg" xmlns:xlink="http://www.w3.org/1999/xlink" x="0px"
	 y="0px" width="44px" height="40px" viewBox="0 0 44 40" style="enable-background:new 0 0 44 40;" xml:space="preserve">
<path style="fill-rule:evenodd;clip-rule:evenodd;fill:#ff0000;" d="M41.741,23.296c-0.964,0.836-2.593,1.732-5.141,1.732
	c-0.522,0-1.084-0.04-1.685-0.123c-2.309,3.725-5.762,6.591-9.835,8.042C29.078,34.225,32.529,36.722,35,40H3
	c2.474-3.283,5.932-5.783,9.938-7.058C5.421,30.276,0,22.811,0,14c0-1.372,0.144-2.706,0.395-4H12h7h7h11.605
	C37.856,11.294,38,12.628,38,14c0,0.197-0.023,0.389-0.028,0.585c1.021-0.421,2.463-0.598,3.707-0.083
	C42.545,14.861,44,15.868,44,18.576C44,19.85,43.408,21.85,41.741,23.296z M7.68,38h22.64c-3.17-2.577-7.122-4-11.32-4
	C14.802,34,10.85,35.423,7.68,38z M35.888,12H2.112C2.038,12.676,2,13.345,2,14c0,9.925,7.626,18,17,18c9.374,0,17-8.075,17-18
	C36,13.345,35.962,12.676,35.888,12z M40.928,16.355c-1.006-0.426-2.321,0.036-2.555,0.262c-0.166,0.161-0.377,0.238-0.592,0.262
	c-0.299,2.176-0.924,4.237-1.833,6.127c1.887,0.135,3.392-0.275,4.482-1.22C41.669,20.711,42,19.263,42,18.576
	C42,16.811,41.193,16.469,40.928,16.355z M11,9c0-0.553,0.448-1,1-1c0.551,0,1-0.448,1-1c0-0.552-0.449-1-1-1c-1.654,0-3-1.346-3-3
	s1.346-3,3-3c0.552,0,1,0.447,1,1c0,0.553-0.448,1-1,1c-0.551,0-1,0.448-1,1c0,0.552,0.449,1,1,1c1.654,0,3,1.345,3,3
	c0,1.654-1.346,3-3,3C11.448,10,11,9.552,11,9z M18,9c0-0.553,0.448-1,1-1c0.551,0,1-0.448,1-1c0-0.552-0.449-1-1-1
	c-1.654,0-3-1.346-3-3s1.346-3,3-3c0.552,0,1,0.447,1,1c0,0.553-0.448,1-1,1c-0.551,0-1,0.448-1,1c0,0.552,0.449,1,1,1
	c1.654,0,3,1.345,3,3c0,1.654-1.346,3-3,3C18.448,10,18,9.552,18,9z M25,9c0-0.553,0.448-1,1-1c0.551,0,1-0.448,1-1
	c0-0.552-0.449-1-1-1c-1.654,0-3-1.346-3-3s1.346-3,3-3c0.552,0,1,0.447,1,1c0,0.553-0.448,1-1,1c-0.551,0-1,0.448-1,1
	c0,0.552,0.449,1,1,1c1.654,0,3,1.345,3,3c0,1.654-1.346,3-3,3C25.448,10,25,9.552,25,9z"/>
</svg>
