<?xml version="1.0" encoding="iso-8859-1"?>
<!-- Generator: Adobe Illustrator 17.0.0, SVG Export Plug-In . SVG Version: 6.00 Build 0)  -->
<!DOCTYPE svg PUBLIC "-//W3C//DTD SVG 1.1//EN" "http://www.w3.org/Graphics/SVG/1.1/DTD/svg11.dtd">
<svg version="1.1" id="&#x56FE;&#x5C42;_1" xmlns="http://www.w3.org/2000/svg" xmlns:xlink="http://www.w3.org/1999/xlink" x="0px"
	 y="0px" width="34px" height="40px" viewBox="0 0 34 40" style="enable-background:new 0 0 34 40;" xml:space="preserve">
<path style="fill-rule:evenodd;clip-rule:evenodd;fill:#959595;" d="M17,26C7.611,26,0,18.389,0,9c0-3.311,0.961-6.389,2.6-9h28.8
	C33.04,2.611,34,5.689,34,9C34,18.389,26.389,26,17,26z M17,24c5.743,0,10.737-3.248,13.256-8H3.744C6.263,20.752,11.257,24,17,24z
	 M30.249,2H3.752C2.603,4.158,2,6.557,2,9c0,1.755,0.319,3.433,0.875,5h28.25C31.681,12.433,32,10.755,32,9
	C32,6.557,31.397,4.158,30.249,2z M8,38h8V28c0-0.552,0.448-1,1-1c0.552,0,1,0.448,1,1v10h8c0.552,0,1,0.447,1,1
	c0,0.553-0.448,1-1,1H8c-0.552,0-1-0.447-1-1C7,38.447,7.448,38,8,38z"/>
</svg>
