<?xml version="1.0" encoding="iso-8859-1"?>
<!-- Generator: Adobe Illustrator 17.0.0, SVG Export Plug-In . SVG Version: 6.00 Build 0)  -->
<!DOCTYPE svg PUBLIC "-//W3C//DTD SVG 1.1//EN" "http://www.w3.org/Graphics/SVG/1.1/DTD/svg11.dtd">
<svg version="1.1" id="&#x56FE;&#x5C42;_1" xmlns="http://www.w3.org/2000/svg" xmlns:xlink="http://www.w3.org/1999/xlink" x="0px"
	 y="0px" width="24px" height="22px" viewBox="0 0 24 22" style="enable-background:new 0 0 24 22;" xml:space="preserve">
<path style="fill-rule:evenodd;clip-rule:evenodd;fill:#CCCCCC;" d="M21.556,16H13v4h5l0,0h0.02c1.093,0,1.98,0.886,1.98,1.98V22H4
	v-0.02C4,20.886,4.886,20,5.98,20H11v-4H2.444C1.094,16,0,14.905,0,13.556V2.444C0,1.094,1.094,0,2.444,0h19.111
	C22.906,0,24,1.094,24,2.444v11.111C24,14.905,22.906,16,21.556,16z M22,2H2v12h20V2z"/>
</svg>
