<?xml version="1.0" encoding="iso-8859-1"?>
<!-- Generator: Adobe Illustrator 17.0.0, SVG Export Plug-In . SVG Version: 6.00 Build 0)  -->
<!DOCTYPE svg PUBLIC "-//W3C//DTD SVG 1.1//EN" "http://www.w3.org/Graphics/SVG/1.1/DTD/svg11.dtd">
<svg version="1.1" id="&#x56FE;&#x5C42;_1" xmlns="http://www.w3.org/2000/svg" xmlns:xlink="http://www.w3.org/1999/xlink" x="0px"
	 y="0px" width="19px" height="14.25px" viewBox="0 0 32 24" style="enable-background:new 0 0 32 24;" xml:space="preserve">
<path style="fill-rule:evenodd;clip-rule:evenodd;fill:#313232;" d="M31,15c0.353,0,0.686-0.072,1-0.184V22c0,1.105-0.895,2-2,2H11
	H9H2c-1.105,0-2-0.895-2-2v-7.184C0.314,14.928,0.647,15,1,15c1.657,0,3-1.343,3-3S2.657,9,1,9C0.647,9,0.314,9.072,0,9.184V2
	c0-1.105,0.895-2,2-2h7h2h19c1.105,0,2,0.895,2,2v7.184C31.686,9.072,31.352,9,31,9c-1.657,0-3,1.343-3,3S29.343,15,31,15z M30,7.1
	V2H11v2H9V2H2V7.1C4.279,7.565,6,9.585,6,12c0,2.414-1.721,4.435-4,4.899V22h7v-2h2v2h19v-5.101c-2.279-0.464-4-2.485-4-4.899
	C26,9.585,27.721,7.565,30,7.1z M9,7.429h2v9.143H9V7.429z"/>
</svg>
