<?xml version="1.0" encoding="iso-8859-1"?>
<!-- Generator: Adobe Illustrator 17.0.0, SVG Export Plug-In . SVG Version: 6.00 Build 0)  -->
<!DOCTYPE svg PUBLIC "-//W3C//DTD SVG 1.1//EN" "http://www.w3.org/Graphics/SVG/1.1/DTD/svg11.dtd">
<svg version="1.1" id="&#x56FE;&#x5C42;_1" xmlns="http://www.w3.org/2000/svg" xmlns:xlink="http://www.w3.org/1999/xlink" x="0px"
	 y="0px" width="44px" height="44px" viewBox="0 0 44 44" style="enable-background:new 0 0 44 44;" xml:space="preserve">
<path style="fill-rule:evenodd;clip-rule:evenodd;fill:#CCCCCC;" d="M22,44C9.85,44,0,34.15,0,22S9.85,0,22,0s22,9.85,22,22
	S34.15,44,22,44z M22,2C10.954,2,2,10.954,2,22c0,11.046,8.954,20,20,20s20-8.954,20-20C42,10.954,33.046,2,22,2z M32.609,32.609
	c-0.391,0.391-1.024,0.391-1.415,0L22,23.414l-9.192,9.192c-0.391,0.391-1.024,0.391-1.414,0c-0.39-0.39-0.39-1.024,0-1.414
	L20.586,22l-9.195-9.195c-0.391-0.391-0.391-1.024,0-1.415c0.391-0.39,1.024-0.39,1.415,0L22,20.586l9.192-9.192
	c0.39-0.391,1.024-0.391,1.414,0c0.391,0.391,0.391,1.024,0,1.414L23.414,22l9.195,9.195C33,31.585,33,32.219,32.609,32.609z"/>
</svg>
