<?xml version="1.0" encoding="iso-8859-1"?>
<!-- Generator: Adobe Illustrator 17.0.0, SVG Export Plug-In . SVG Version: 6.00 Build 0)  -->
<!DOCTYPE svg PUBLIC "-//W3C//DTD SVG 1.1//EN" "http://www.w3.org/Graphics/SVG/1.1/DTD/svg11.dtd">
<svg version="1.1" id="&#x56FE;&#x5C42;_1" xmlns="http://www.w3.org/2000/svg" xmlns:xlink="http://www.w3.org/1999/xlink" x="0px"
	 y="0px" width="37px" height="44px" viewBox="0 0 37 44" style="enable-background:new 0 0 37 44;" xml:space="preserve">
<path style="fill-rule:evenodd;clip-rule:evenodd;fill:#ffffff;" d="M17.922,44C17.922,44,0,30.803,0,17.002
	c0-0.003,0.003-0.004,0.003-0.006c0-0.017-0.003-0.034-0.003-0.05C0,8.21,8.283,0,18.5,0S37,8.21,37,16.945
	C37,30.89,17.922,44,17.922,44z M18.5,2.316c-8.94,0-16.188,7.13-16.188,14.716c0,0.014,0.003,0.029,0.003,0.044
	c0,0.002-0.003,0.003-0.003,0.006c0,11.985,15.682,23.446,15.682,23.446s16.693-11.385,16.693-23.495
	C34.688,9.446,27.44,2.316,18.5,2.316z M18.5,24.316c-3.832,0-6.938-3.111-6.938-6.948c0-3.837,3.106-6.947,6.938-6.947
	s6.938,3.111,6.938,6.947C25.438,21.205,22.331,24.316,18.5,24.316z M18.5,12.737c-2.554,0-4.625,2.073-4.625,4.631
	c0,2.558,2.071,4.632,4.625,4.632s4.625-2.074,4.625-4.632C23.125,14.81,21.054,12.737,18.5,12.737z"/>
</svg>
