<?xml version="1.0" encoding="iso-8859-1"?>
<!-- Generator: Adobe Illustrator 17.0.0, SVG Export Plug-In . SVG Version: 6.00 Build 0)  -->
<!DOCTYPE svg PUBLIC "-//W3C//DTD SVG 1.1//EN" "http://www.w3.org/Graphics/SVG/1.1/DTD/svg11.dtd">
<svg version="1.1" id="&#x56FE;&#x5C42;_1" xmlns="http://www.w3.org/2000/svg" xmlns:xlink="http://www.w3.org/1999/xlink" x="0px"
	 y="0px" width="134px" height="45px" viewBox="0 0 134 45" style="enable-background:new 0 0 134 45;" xml:space="preserve">
<path style="fill-rule:evenodd;clip-rule:evenodd;fill:#ffffff;" d="M129,45h-21c-2,0-5-3-5-5v-9c0-2.273,4-4,6-4.484v5.262V37
	c0,0,0.538,2,2.159,2H126c1.572,0,2-0.61,2-2.118v-3.699c0-1.508-0.267-2.183-1.839-2.183H120c-3.565,0-5-4-5-4v-5.006v-9.089
	c0,0,5.314-0.236,5.84,2.432c0.027,0.136,0-0.335,0-0.335L133,15c0,0.002,0,0.004,0,0.006c-0.367,2.455-3.233,5.888-3.233,5.888
	h-1.042v0.003h-7.892V25H129c3,0,5,2,5,5v10C134,42,131,45,129,45z M130.958,10H103c-1.573,0-2.1,1.445-2.148,3v26.972h-0.115v0.621
	c0,0-2.64,3.861-5.729,4.329c-0.003,0-0.005,0-0.007,0v-4.704v-2.597V10c0.247-3.158,3-6,6-6h13.014C114,1,120.997,0,121,0l-0.009,4
	H134C133.888,7.22,130.958,10,130.958,10z M62.324,9C60.992,24.985,58.205,35.993,54,43c-1.055,1.758-8,1.79-8,1.79
	c4.662-11.009,10.107-16.872,10.324-34.458V9H48V3.001c0,0,37-0.002,37,0C84.531,6.102,82,9,82,9H62.324z M33.642,9H21.928v6
	l8.556,0.033C33.875,15.033,37,16.749,37,20v16.882c-2.425-0.367-5.924-3.726-5.924-3.726v-3.002v-3.252v-3.238
	C31.076,23.664,31,21,29,21l-20.813-0.07c-1.622,0-2.243,1.178-2.243,2.733V27l23.04,0.002c0,0.002,0,0.004,0,0.006
	c-0.367,2.425-2.958,5.953-2.958,5.953L6,33l-0.056,3.21C5.944,37.718,6.379,39,8,39h29c-1.051,1.865-3.535,6-5.876,6H6
	c-3.39,0-6-2.748-6-6V20c0-3.251,3.465-4.967,6.854-4.967L16,15V9H0V3h37c0,0.003,0,0.005,0,0.007C36.519,6.185,33.642,9,33.642,9z
	 M83,21v19c0,2-3,5-4,5h-6c0,0-2.633-3.569-3-5.994c0-0.002,0-0.004,0-0.006h5c1.485,0,2-0.497,2-2V24c0-1.508-0.378-2-2-2H64v-6
	h12.798C80.189,16,83,17.748,83,21z"/>
</svg>
