<?xml version="1.0" encoding="iso-8859-1"?>
<!-- Generator: Adobe Illustrator 17.0.0, SVG Export Plug-In . SVG Version: 6.00 Build 0)  -->
<!DOCTYPE svg PUBLIC "-//W3C//DTD SVG 1.1//EN" "http://www.w3.org/Graphics/SVG/1.1/DTD/svg11.dtd">
<svg version="1.1" id="&#x56FE;&#x5C42;_1" xmlns="http://www.w3.org/2000/svg" xmlns:xlink="http://www.w3.org/1999/xlink" x="0px"
	 y="0px" width="44px" height="44px" viewBox="0 0 44 44" style="enable-background:new 0 0 44 44;" xml:space="preserve">
<path style="fill-rule:evenodd;clip-rule:evenodd;fill:#ff0000;" d="M22,44C9.85,44,0,34.15,0,22C0,9.85,9.85,0,22,0s22,9.85,22,22
	C44,34.15,34.15,44,22,44z M22,42c6.544,0,12.335-3.157,15.984-8.015C34.334,29.137,28.535,26,22,26S9.666,29.137,6.016,33.985
	C9.665,38.843,15.457,42,22,42z M29,17c0-3.866-3.134-7-7-7c-3.866,0-7,3.134-7,7c0,3.866,3.134,7,7,7C25.866,24,29,20.866,29,17z
	 M22,2C10.954,2,2,10.954,2,22c0,3.762,1.058,7.269,2.865,10.275c3.058-3.809,7.333-6.599,12.263-7.716
	C14.646,22.957,13,20.173,13,17c0-4.97,4.029-9,9-9c4.971,0,9,4.03,9,9c0,3.173-1.646,5.958-4.128,7.56
	c4.93,1.116,9.204,3.907,12.263,7.716C40.942,29.269,42,25.762,42,22C42,10.954,33.046,2,22,2z"/>
</svg>
