<?xml version="1.0" encoding="iso-8859-1"?>
<!-- Generator: Adobe Illustrator 17.0.0, SVG Export Plug-In . SVG Version: 6.00 Build 0)  -->
<!DOCTYPE svg PUBLIC "-//W3C//DTD SVG 1.1//EN" "http://www.w3.org/Graphics/SVG/1.1/DTD/svg11.dtd">
<svg version="1.1" id="&#x56FE;&#x5C42;_1" xmlns="http://www.w3.org/2000/svg" xmlns:xlink="http://www.w3.org/1999/xlink" x="0px"
	 y="0px" width="42.012px" height="38.001px" viewBox="0 0 42.012 38.001" style="enable-background:new 0 0 42.012 38.001;"
	 xml:space="preserve">
<path style="fill:#CCCCCC;" d="M28.221,38.001c-0.129,0-0.261-0.003-0.396-0.009l-14.429,0.001
	c-0.017,0.004-0.109,0.007-0.206,0.007c-1.4,0-4.084-0.668-5.266-3.173L1.051,22.387c-0.327-0.478-2.145-3.407-0.078-6.645
	L8.737,2.423c0.231-0.398,0.704-0.586,1.146-0.456c0.052,0.016,0.101,0.035,0.149,0.057c0.166,0.007,0.329,0.053,0.47,0.139
	c0.297,0.182,0.504,0.49,0.504,0.838v21.42c1.783,1.022,7.811,4.472,10.006,5.715c3.966-2.272,8.501-4.862,9.994-5.715V14.165
	c-0.054-0.131-0.137-0.319-0.207-0.474c-3.821-2.238-8.524-4.952-10.045-5.829l-4.157,2.406c-0.309,0.178-0.69,0.18-1,0.001
	c-0.309-0.179-0.5-0.509-0.5-0.866V1c0-0.266,0.106-0.52,0.294-0.708C15.578,0.105,15.831,0,16.096,0c0.001,0,0.001,0,0.003,0
	c5.389,0.013,11.712,0.034,12.172,0.036c0.152-0.009,3.299-0.162,5.131,2.629l7.683,13.153c0.042,0.056,1.994,2.936,0.105,6.164
	l-7.71,13.231C33.429,35.305,31.909,38.001,28.221,38.001z M27.877,35.993c0.152,0.007,0.248,0.009,0.344,0.009
	c2.472,0,3.48-1.708,3.522-1.781l7.719-13.247c1.234-2.108-0.013-4.007-0.066-4.087L31.703,3.717
	C30.675,2.155,28.97,2.03,28.472,2.03l-0.104,0.003c-0.059,0.015-5.92-0.016-11.271-0.03v5.666l3.156-1.826
	c0.309-0.179,0.69-0.18,1-0.001c0,0,6.163,3.549,10.831,6.285c0.177,0.104,0.318,0.26,0.403,0.447
	c0.416,0.909,0.588,1.284,0.521,1.616c-0.001,0.707-0.001,2.523-0.001,4.891v5.922c0,0.359-0.192,0.69-0.504,0.868
	c-0.784,0.448-6.386,3.647-10.99,6.285c-0.307,0.174-0.681,0.174-0.987,0.004C18.696,31.13,9.509,25.87,9.509,25.87
	c-0.311-0.179-0.503-0.51-0.503-0.868V5.932L2.68,16.785c-1.503,2.355,0.01,4.458,0.025,4.478c0.026,0.035,0.05,0.072,0.071,0.111
	l6.928,12.543c0.786,1.659,2.621,2.083,3.486,2.083l0.139-0.005L27.877,35.993z M21.006,25.001c-0.126,0-0.252-0.024-0.372-0.071
	l-5-2c-0.379-0.152-0.628-0.519-0.628-0.929v-6c0-0.409,0.249-0.776,0.628-0.929l5-2c0.239-0.095,0.504-0.095,0.743,0l5,2
	c0.38,0.153,0.629,0.52,0.629,0.929v6c0,0.41-0.249,0.777-0.629,0.929l-5,2C21.258,24.978,21.132,25.001,21.006,25.001z
	 M17.006,21.325l4,1.6l4-1.6v-4.646l-4-1.6l-4,1.6V21.325z"/>
</svg>
