<?xml version="1.0" encoding="iso-8859-1"?>
<!-- Generator: Adobe Illustrator 17.0.0, SVG Export Plug-In . SVG Version: 6.00 Build 0)  -->
<!DOCTYPE svg PUBLIC "-//W3C//DTD SVG 1.1//EN" "http://www.w3.org/Graphics/SVG/1.1/DTD/svg11.dtd">
<svg version="1.1" id="&#x56FE;&#x5C42;_1" xmlns="http://www.w3.org/2000/svg" xmlns:xlink="http://www.w3.org/1999/xlink" x="0px"
	 y="0px" width="40px" height="28px" viewBox="0 0 40 28" style="enable-background:new 0 0 40 28;" xml:space="preserve">
<path style="fill-rule:evenodd;clip-rule:evenodd;fill:#ff0000;" d="M39,15H9c-0.552,0-1-0.448-1-1c0-0.552,0.448-1,1-1h30
	c0.552,0,1,0.448,1,1C40,14.552,39.552,15,39,15z M39,3H9C8.448,3,8,2.552,8,2c0-0.552,0.448-1,1-1h30c0.552,0,1,0.448,1,1
	C40,2.552,39.552,3,39,3z M2,28c-1.105,0-2-0.896-2-2c0-1.104,0.895-2,2-2s2,0.896,2,2C4,27.105,3.105,28,2,28z M2,16
	c-1.105,0-2-0.895-2-2c0-1.105,0.895-2,2-2s2,0.895,2,2C4,15.105,3.105,16,2,16z M2,4C0.895,4,0,3.105,0,2c0-1.105,0.895-2,2-2
	s2,0.896,2,2C4,3.105,3.105,4,2,4z M9,25h30c0.552,0,1,0.448,1,1c0,0.552-0.448,1-1,1H9c-0.552,0-1-0.448-1-1
	C8,25.448,8.448,25,9,25z"/>
</svg>
