<?xml version="1.0" encoding="iso-8859-1"?>
<!-- Generator: Adobe Illustrator 17.0.0, SVG Export Plug-In . SVG Version: 6.00 Build 0)  -->
<!DOCTYPE svg PUBLIC "-//W3C//DTD SVG 1.1//EN" "http://www.w3.org/Graphics/SVG/1.1/DTD/svg11.dtd">
<svg version="1.1" id="&#x56FE;&#x5C42;_1" xmlns="http://www.w3.org/2000/svg" xmlns:xlink="http://www.w3.org/1999/xlink" x="0px"
	 y="0px" width="44.125px" height="41px" viewBox="0 0 44.125 41" style="enable-background:new 0 0 44.125 41;"
	 xml:space="preserve">
<path style="fill-rule:evenodd;clip-rule:evenodd;fill:#CCCCCC;" d="M39.656,32H17.154l-6.379-21.005l0.01-0.101L7.154,2H0.874
	V1.975C0.384,1.91,0,1.508,0,1s0.384-0.91,0.874-0.975V0H1c0,0,0,0,0,0s0,0,0,0h7.595l3.713,9.138l31.817,2.982L39.656,32z
	 M18.595,30h19.498l3.53-16.12l-28.623-2.662L18.595,30z M18.5,36c1.381,0,2.5,1.119,2.5,2.5c0,1.381-1.119,2.5-2.5,2.5
	c-1.381,0-2.5-1.119-2.5-2.5C16,37.119,17.119,36,18.5,36z M36.5,36c1.381,0,2.5,1.119,2.5,2.5c0,1.381-1.119,2.5-2.5,2.5
	S34,39.881,34,38.5C34,37.119,35.119,36,36.5,36z"/>
</svg>
