<?xml version="1.0" encoding="iso-8859-1"?>
<!-- Generator: Adobe Illustrator 17.0.0, SVG Export Plug-In . SVG Version: 6.00 Build 0)  -->
<!DOCTYPE svg PUBLIC "-//W3C//DTD SVG 1.1//EN" "http://www.w3.org/Graphics/SVG/1.1/DTD/svg11.dtd">
<svg version="1.1" id="&#x56FE;&#x5C42;_1" xmlns="http://www.w3.org/2000/svg" xmlns:xlink="http://www.w3.org/1999/xlink" x="0px"
	 y="0px" width="32px" height="31px" viewBox="0 0 32 31" style="enable-background:new 0 0 32 31;" xml:space="preserve">
<path style="fill-rule:evenodd;clip-rule:evenodd;fill:#CCCCCC;" d="M16,31C7.163,31,0,24.06,0,15.5C0,6.939,7.163,0,16,0
	c8.837,0,16,6.939,16,15.5C32,24.06,24.837,31,16,31z M24.286,11.453l-0.894-0.877c-0.247-0.242-0.647-0.242-0.894,0l-7.753,8.846
	l-4.177-4.098c-0.247-0.242-0.647-0.242-0.894,0L8.78,16.201c-0.247,0.242-0.247,0.635,0,0.877l4.624,4.536l0.894,0.877
	c0.247,0.242,0.647,0.242,0.894,0l0.894-0.877l8.2-9.284C24.533,12.087,24.533,11.695,24.286,11.453z"/>
</svg>
