<?xml version="1.0" encoding="iso-8859-1"?>
<!-- Generator: Adobe Illustrator 17.0.0, SVG Export Plug-In . SVG Version: 6.00 Build 0)  -->
<!DOCTYPE svg PUBLIC "-//W3C//DTD SVG 1.1//EN" "http://www.w3.org/Graphics/SVG/1.1/DTD/svg11.dtd">
<svg version="1.1" id="&#x56FE;&#x5C42;_1" xmlns="http://www.w3.org/2000/svg" xmlns:xlink="http://www.w3.org/1999/xlink" x="0px"
	 y="0px" width="40px" height="40px" viewBox="0 0 40 40" style="enable-background:new 0 0 40 40;" xml:space="preserve">
<path style="fill-rule:evenodd;clip-rule:evenodd;fill:#ffffff;" d="M36.222,40H28c-0.552,0-1-0.448-1-1s0.448-1,1-1h8.222
	C37.203,38,38,37.203,38,36.222V29c0-0.552,0.448-1,1-1s1,0.448,1,1v7.222C40,38.305,38.305,40,36.222,40z M39,21H1
	c-0.552,0-1-0.448-1-1s0.448-1,1-1h38c0.552,0,1,0.448,1,1S39.552,21,39,21z M39,12c-0.552,0-1-0.448-1-1V3.778
	C38,2.797,37.203,2,36.222,2H28c-0.552,0-1-0.448-1-1s0.448-1,1-1h8.222C38.305,0,40,1.695,40,3.778V11C40,11.552,39.552,12,39,12z
	 M12,2H3.778C2.797,2,2,2.797,2,3.778V11c0,0.552-0.448,1-1,1s-1-0.448-1-1V3.778C0,1.695,1.695,0,3.778,0H12c0.552,0,1,0.448,1,1
	S12.552,2,12,2z M1,28c0.552,0,1,0.448,1,1v7.222C2,37.203,2.797,38,3.778,38H12c0.552,0,1,0.448,1,1s-0.448,1-1,1H3.778
	C1.695,40,0,38.305,0,36.222V29C0,28.448,0.448,28,1,28z"/>
</svg>
