<?xml version="1.0" encoding="iso-8859-1"?>
<!-- Generator: Adobe Illustrator 17.0.0, SVG Export Plug-In . SVG Version: 6.00 Build 0)  -->
<!DOCTYPE svg PUBLIC "-//W3C//DTD SVG 1.1//EN" "http://www.w3.org/Graphics/SVG/1.1/DTD/svg11.dtd">
<svg version="1.1" id="&#x56FE;&#x5C42;_1" xmlns="http://www.w3.org/2000/svg" xmlns:xlink="http://www.w3.org/1999/xlink" x="0px"
	 y="0px" width="18px" height="18px" viewBox="0 0 41.907 42" style="enable-background:new 0 0 41.907 42;"
	 xml:space="preserve">
<path style="fill-rule:evenodd;clip-rule:evenodd;fill:#999;" d="M41.615,41.707C41.42,41.902,41.164,42,40.909,42
	s-0.511-0.098-0.706-0.293L29.942,31.422c-0.39-0.391-0.39-1.024,0-1.414c0.39-0.39,1.021-0.39,1.411,0l10.262,10.285
	C42.004,40.684,42.004,41.316,41.615,41.707z M17.257,34.591C7.742,34.591,0,26.832,0,17.295C0,7.759,7.742,0,17.257,0
	c9.515,0,17.257,7.759,17.257,17.295C34.514,26.832,26.773,34.591,17.257,34.591z M17.257,2C8.842,2,1.995,8.861,1.995,17.295
	c0,8.434,6.846,15.295,15.262,15.295c8.415,0,15.261-6.861,15.261-15.295C32.519,8.861,25.672,2,17.257,2z"/>
</svg>
