<?xml version="1.0" encoding="iso-8859-1"?>
<!-- Generator: Adobe Illustrator 17.0.0, SVG Export Plug-In . SVG Version: 6.00 Build 0)  -->
<!DOCTYPE svg PUBLIC "-//W3C//DTD SVG 1.1//EN" "http://www.w3.org/Graphics/SVG/1.1/DTD/svg11.dtd">
<svg version="1.1" id="&#x56FE;&#x5C42;_1" xmlns="http://www.w3.org/2000/svg" xmlns:xlink="http://www.w3.org/1999/xlink" x="0px"
	 y="0px" width="18px" height="17px" viewBox="0 0 31.671 30.003" style="enable-background:new 0 0 31.671 30.003;"
	 xml:space="preserve">
<path style="fill-rule:evenodd;clip-rule:evenodd;fill:#313232;" d="M27.049,15.83c-3.453,0-5.755-3.422-5.755-3.422
	s0.863,3.422-4.604,4.563c-0.184,0.039-1.524,0.039-1.708,0c-5.467-1.141-4.604-4.563-4.604-4.563S8.075,15.83,4.622,15.83
	s-4.797-2.272-4.604-4.563c0.288-3.422,2.47-9.119,3.741-10.126C5.198,0,5.773,0,5.773,0h20.125c0,0,0.576,0,2.014,1.141
	c1.271,1.008,3.453,6.704,3.741,10.126C31.846,13.558,30.502,15.83,27.049,15.83z M29.681,11.436
	c-0.261-3.102-2.284-8.121-2.996-8.729c-0.555-0.44-0.902-0.634-1.06-0.711H6.046C5.888,2.073,5.54,2.268,4.982,2.71
	C4.274,3.315,2.251,8.334,1.99,11.436c-0.033,0.397-0.016,1.144,0.475,1.683c0.539,0.591,1.47,0.715,2.157,0.715
	c2.301,0,4.1-2.521,4.117-2.547c0.394-0.585,1.06-0.94,1.731-0.94c0.28,0,0.56,0.062,0.822,0.194
	c0.877,0.445,1.321,1.389,1.016,2.324c-0.072,0.691,0.685,1.652,3.075,2.15c0.009,0,0.177,0.016,0.453,0.016
	c0.276,0,0.444-0.016,0.481-0.021c1.437-0.3,2.463-0.823,2.861-1.465c0.201-0.324,0.198-0.643,0.197-0.645
	c-0.237-0.94,0.23-1.915,1.106-2.313c0.262-0.119,0.538-0.176,0.811-0.176c0.64,0,1.26,0.313,1.639,0.876
	c0.012,0.017,1.78,2.547,4.117,2.547c0.687,0,1.618-0.124,2.157-0.715C29.697,12.58,29.714,11.833,29.681,11.436z M2.862,17.33
	c0.552,0,1,0.436,1,0.975v8.495c0,0.691,0.557,1.254,1.241,1.254h21.518c0.685,0,1.241-0.563,1.241-1.254v-8.495
	c0-0.054,0.31-1.179,0.858-1.246c0.543-0.063,1.047,0.312,1.116,0.846c0.017,0.131,0.025,0.264,0.025,0.4v8.495
	c0,1.766-1.454,3.204-3.241,3.204H5.104c-1.787,0-3.241-1.438-3.241-3.204v-8.495C1.862,17.765,2.31,17.33,2.862,17.33z"/>
</svg>
