<?xml version="1.0" encoding="iso-8859-1"?>
<!-- Generator: Adobe Illustrator 17.0.0, SVG Export Plug-In . SVG Version: 6.00 Build 0)  -->
<!DOCTYPE svg PUBLIC "-//W3C//DTD SVG 1.1//EN" "http://www.w3.org/Graphics/SVG/1.1/DTD/svg11.dtd">
<svg version="1.1" id="&#x56FE;&#x5C42;_1" xmlns="http://www.w3.org/2000/svg" xmlns:xlink="http://www.w3.org/1999/xlink" x="0px"
	 y="0px" width="28px" height="32px" viewBox="0 0 28 32" style="enable-background:new 0 0 28 32;" xml:space="preserve">
<path style="fill-rule:evenodd;clip-rule:evenodd;fill:#323232;" d="M25.556,32H6.444C5.094,32,4,30.906,4,29.556V6.444
	C4,5.094,5.094,4,6.444,4H20l8,8v17.556C28,30.906,26.906,32,25.556,32z M20,6.829V12h5.171L20,6.829z M26,14h-6h-0.02
	C18.886,14,18,13.114,18,12.02V12V6H6.444C6.199,6,6,6.199,6,6.444v23.111C6,29.8,6.199,30,6.444,30h19.111
	C25.801,30,26,29.8,26,29.556V14z M22,26H10c-0.552,0-1-0.448-1-1c0-0.552,0.448-1,1-1h12c0.552,0,1,0.448,1,1
	C23,25.552,22.552,26,22,26z M22,21H10c-0.552,0-1-0.448-1-1c0-0.552,0.448-1,1-1h12c0.552,0,1,0.448,1,1C23,20.552,22.552,21,22,21
	z M15,16h-5c-0.552,0-1-0.448-1-1c0-0.552,0.448-1,1-1h5c0.552,0,1,0.448,1,1C16,15.552,15.552,16,15,16z M2,2.444V24v1.556v2.402
	c-1.138-0.209-2-1.204-2-2.402V2.444C0,1.094,1.094,0,2.444,0H16l2,2H2.444C2.199,2,2,2.199,2,2.444z"/>
</svg>
