<?xml version="1.0" encoding="iso-8859-1"?>
<!-- Generator: Adobe Illustrator 17.0.0, SVG Export Plug-In . SVG Version: 6.00 Build 0)  -->
<!DOCTYPE svg PUBLIC "-//W3C//DTD SVG 1.1//EN" "http://www.w3.org/Graphics/SVG/1.1/DTD/svg11.dtd">
<svg version="1.1" id="&#x56FE;&#x5C42;_1" xmlns="http://www.w3.org/2000/svg" xmlns:xlink="http://www.w3.org/1999/xlink" x="0px"
	 y="0px" width="32px" height="32px" viewBox="0 0 32 32" style="enable-background:new 0 0 32 32;" xml:space="preserve">
<path style="fill-rule:evenodd;clip-rule:evenodd;fill:#323232;" d="M30,17.955v11.6C30,30.906,28.906,32,27.556,32H4.444
	C3.094,32,2,30.906,2,29.556v-11.6c-1.137-0.209-2-1.202-2-2.4v-5.111C0,9.094,1.094,8,2.444,8h6.212
	c-0.52-0.34-1.029-0.716-1.485-1.172C6.416,6.073,6,5.069,6,4s0.416-2.073,1.172-2.828C7.927,0.416,8.932,0,10,0
	c1.068,0,2.073,0.416,2.828,1.172c2.381,2.381,3.072,6.076,3.143,6.49L16,7.83l0.029-0.168c0.071-0.414,0.762-4.109,3.143-6.49
	C19.927,0.416,20.931,0,22,0c1.068,0,2.073,0.416,2.828,1.172C25.584,1.927,26,2.932,26,4s-0.416,2.073-1.172,2.828
	C24.373,7.284,23.863,7.661,23.344,8h6.212C30.906,8,32,9.094,32,10.445v5.111C32,16.753,31.137,17.746,30,17.955z M4,29.556
	C4,29.801,4.199,30,4.444,30h23.111c0.245,0,0.444-0.2,0.444-0.445V18H4V29.556z M11.414,2.586C11.024,2.195,10.512,2,10,2
	S8.976,2.195,8.586,2.586c-0.781,0.781-0.781,2.047,0,2.828C10.586,7.414,14,8,14,8S13.414,4.586,11.414,2.586z M23.414,5.414
	c0.781-0.781,0.781-2.047,0-2.828C23.024,2.195,22.512,2,22,2s-1.024,0.195-1.414,0.586C18.586,4.586,18,8,18,8
	S21.414,7.414,23.414,5.414z M30,10.445C30,10.199,29.801,10,29.556,10H18.171h-4.341H2.444C2.199,10,2,10.199,2,10.445v5.111
	C2,15.801,2.199,16,2.444,16h27.111C29.801,16,30,15.801,30,15.556V10.445z"/>
</svg>
