<?xml version="1.0" encoding="iso-8859-1"?>
<!-- Generator: Adobe Illustrator 17.0.0, SVG Export Plug-In . SVG Version: 6.00 Build 0)  -->
<!DOCTYPE svg PUBLIC "-//W3C//DTD SVG 1.1//EN" "http://www.w3.org/Graphics/SVG/1.1/DTD/svg11.dtd">
<svg version="1.1" id="&#x56FE;&#x5C42;_1" xmlns="http://www.w3.org/2000/svg" xmlns:xlink="http://www.w3.org/1999/xlink" x="0px"
	 y="0px" width="36px" height="25.968px" viewBox="0 0 36 25.968" style="enable-background:new 0 0 36 25.968;"
	 xml:space="preserve">
<path style="fill-rule:evenodd;clip-rule:evenodd;fill:#CCCCCC;" d="M6.828,25.57c-0.469,0.469-1.165,0.532-1.556,0.141
	c-0.391-0.39-0.327-1.087,0.141-1.555L29.172,0.397c0.469-0.468,1.165-0.532,1.556-0.141c0.391,0.39,0.327,1.087-0.141,1.556
	L6.828,25.57z M19.217,6.11l-1.958,1.958c-2.166,0.324-3.864,2.022-4.185,4.185l-1.959,1.959C11.044,13.813,11,13.404,11,12.984
	c0-3.858,3.134-6.986,7-6.986C18.416,5.997,18.821,6.041,19.217,6.11z M18,2.984c-8.722,0-14.071,7.385-15.692,10
	c0.745,1.202,2.29,3.414,4.581,5.453L5.457,19.87C1.83,16.606,0,12.984,0,12.984s6.047-12,18-12c1.986,0,3.804,0.334,5.461,0.882
	l-1.627,1.626C20.637,3.179,19.365,2.984,18,2.984z M16.783,19.858l1.958-1.958c2.166-0.324,3.864-2.022,4.185-4.185l1.959-1.959
	C24.956,12.155,25,12.564,25,12.984c0,3.858-3.134,6.986-7,6.986C17.584,19.97,17.179,19.927,16.783,19.858z M18,22.984
	c8.761,0,14.089-7.391,15.696-10c-0.74-1.201-2.281-3.419-4.576-5.462l1.433-1.433C34.181,9.356,36,12.984,36,12.984s-6,12-18,12
	c-1.983,0-3.8-0.335-5.457-0.886l1.625-1.625C15.365,22.787,16.636,22.984,18,22.984z"/>
</svg>
