<?xml version="1.0" encoding="iso-8859-1"?>
<!-- Generator: Adobe Illustrator 17.0.0, SVG Export Plug-In . SVG Version: 6.00 Build 0)  -->
<!DOCTYPE svg PUBLIC "-//W3C//DTD SVG 1.1//EN" "http://www.w3.org/Graphics/SVG/1.1/DTD/svg11.dtd">
<svg version="1.1" id="&#x56FE;&#x5C42;_1" xmlns="http://www.w3.org/2000/svg" xmlns:xlink="http://www.w3.org/1999/xlink" x="0px"
	 y="0px" width="36px" height="24px" viewBox="0 0 36 24" style="enable-background:new 0 0 36 24;" xml:space="preserve">
<path style="fill-rule:evenodd;clip-rule:evenodd;fill:#CCCCCC;" d="M18,24C6.047,24,0,12,0,12S6.047,0,18,0c12,0,18,12,18,12
	S30,24,18,24z M18,2C9.278,2,3.928,9.385,2.308,12C3.926,14.611,9.277,22,18,22c8.761,0,14.089-7.391,15.696-10
	C32.091,9.395,26.764,2,18,2z M18,18.986c-3.866,0-7-3.128-7-6.986s3.134-6.986,7-6.986S25,8.142,25,12S21.866,18.986,18,18.986z
	 M18,7.01c-2.762,0-5,2.234-5,4.99c0,2.756,2.238,4.99,5,4.99c2.761,0,5-2.234,5-4.99C23,9.244,20.761,7.01,18,7.01z"/>
</svg>
