<?xml version="1.0" encoding="iso-8859-1"?>
<!-- Generator: Adobe Illustrator 17.0.0, SVG Export Plug-In . SVG Version: 6.00 Build 0)  -->
<!DOCTYPE svg PUBLIC "-//W3C//DTD SVG 1.1//EN" "http://www.w3.org/Graphics/SVG/1.1/DTD/svg11.dtd">
<svg version="1.1" id="&#x56FE;&#x5C42;_1" xmlns="http://www.w3.org/2000/svg" xmlns:xlink="http://www.w3.org/1999/xlink" x="0px"
	 y="0px" width="32px" height="28px" viewBox="0 0 32 28" style="enable-background:new 0 0 32 28;" xml:space="preserve">
<path style="fill-rule:evenodd;clip-rule:evenodd;fill:#323232;" d="M29.556,28H2.444C1.094,28,0,26.906,0,25.556V6V4V2.444
	C0,1.094,1.094,0,2.444,0H26c1.094,0,1.98,0.886,1.98,1.98V2H2.99C2.443,2,2,2.443,2,2.99v0.02C2,3.557,2.443,4,2.99,4H4h16h9.555
	C30.906,4,32,5.094,32,6.444V12v2v4v2v5.555C32,26.906,30.906,28,29.556,28z M30,14h-6c-1.105,0-2,0.895-2,2c0,1.104,0.895,2,2,2h6
	V14z M30,20h-5.904c-2.169,0-4.016-1.687-4.094-3.854C19.922,13.87,21.743,12,24,12h6V6.444C30,6.199,29.801,6,29.556,6H20H4H2.99H2
	v19.556C2,25.8,2.199,26,2.444,26h27.111C29.801,26,30,25.8,30,25.556V20z M23.293,16.706C23.107,16.52,23,16.262,23,16
	s0.107-0.52,0.293-0.707C23.478,15.106,23.736,15,24,15c0.264,0,0.52,0.106,0.707,0.293C24.893,15.48,25,15.738,25,16
	s-0.107,0.52-0.293,0.706C24.52,16.893,24.262,17,24,17C23.738,17,23.48,16.893,23.293,16.706z"/>
</svg>
