<?xml version="1.0" encoding="iso-8859-1"?>
<!-- Generator: Adobe Illustrator 17.0.0, SVG Export Plug-In . SVG Version: 6.00 Build 0)  -->
<!DOCTYPE svg PUBLIC "-//W3C//DTD SVG 1.1//EN" "http://www.w3.org/Graphics/SVG/1.1/DTD/svg11.dtd">
<svg version="1.1" id="&#x56FE;&#x5C42;_1" xmlns="http://www.w3.org/2000/svg" xmlns:xlink="http://www.w3.org/1999/xlink" x="0px"
	 y="0px" width="32px" height="26px" viewBox="0 0 32 26" style="enable-background:new 0 0 32 26;" xml:space="preserve">
<path style="fill-rule:evenodd;clip-rule:evenodd;fill:#323232;" d="M30,23h-2.142c-0.446,1.722-1.997,3-3.858,3
	s-3.413-1.278-3.859-3l0,0h-8.283l0,0C11.412,24.722,9.862,26,8,26s-3.412-1.278-3.859-3H2c-1.105,0-2-0.896-2-2V2
	c0-1.104,0.895-2,2-2h18c1.104,0,2,0.896,2,2v3.14C22.488,5.053,22.987,5,23.5,5c4.231,0,7.73,3.095,8.382,7.143H32
	C32,15.78,32,21,32,21C32,22.105,31.104,23,30,23z M24,24c1.105,0,2-0.896,2-2c0-1.104-0.895-2-2-2c-1.104,0-2,0.896-2,2
	C22,23.104,22.896,24,24,24z M8,24c1.104,0,2-0.896,2-2c0-1.104-0.896-2-2-2c-1.105,0-2,0.896-2,2C6,23.104,6.895,24,8,24z M30,13.5
	C30,9.91,27.09,7,23.5,7c-0.517,0-1.018,0.067-1.5,0.181V15c0,0.552-0.448,1-1,1c-0.552,0-1-0.448-1-1c0-1.86,0-13,0-13H2v19h2.141
	C4.588,19.278,6.138,18,8,18s3.412,1.278,3.858,3l0,0h8.283l0,0c0.446-1.722,1.997-3,3.859-3s3.412,1.278,3.858,3H30
	C30,21,30,16.951,30,13.5z"/>
</svg>
